<svg xmlns="http://www.w3.org/2000/svg" viewBox="0 0 24 24" width="24" height="24" role="img">
  <rect x="2" y="2" width="20" height="20" rx="5" fill="#f0e9db"/>
  <path d="M7 2H17A5 5 0 0 1 22 7V17A5 5 0 0 1 17 22H7A5 5 0 0 1 2 17V7A5 5 0 0 1 7 2Z" fill="none" stroke="#7a6c52" stroke-width="1.6"/>
<path d="M7 5.4H17A1.5 1.5 0 0 1 18.5 6.9V14.700000000000003A1.5 1.5 0 0 1 17 16.200000000000003H7A1.5 1.5 0 0 1 5.5 14.700000000000003V6.9A1.5 1.5 0 0 1 7 5.4Z" fill="none" stroke="#221f1a" stroke-width="1.4" stroke-linejoin="round"/>
  <path d="M5.5 8.6h13" fill="none" stroke="#221f1a" stroke-width="1.3" stroke-linecap="round" stroke-linejoin="round"/>
  <path d="M9.6 10.1 14.4 14.9l-2.9-1.1-1.2 2.7Z" fill="#9c3012"/>
  <path d="M7.1 6.35A0.65 0.65 0 1 1 7.1 7.65A0.65 0.65 0 1 1 7.1 6.35Z" fill="#9c3012"/>
  <path d="M8.8 6.35A0.65 0.65 0 1 1 8.8 7.65A0.65 0.65 0 1 1 8.8 6.35Z" fill="#9c3012"/>
</svg>
